<?xml version="1.0" encoding="UTF-8"?><svg xmlns="http://www.w3.org/2000/svg" viewBox="0 0 1920 1080"><defs><style>.c{fill:#9d9d9c;}.d{font-family:Helvetica, Helvetica;font-size:50px;}.d,.e{fill:#c6c6c6;}</style></defs><g id="a"><rect class="c" width="1920" height="1080"/></g><g id="b"><path class="e" d="M876.98,587.24c-5.1,0-9.52-1.87-13.27-5.62-3.74-3.75-5.62-8.17-5.62-13.27v-166.16c0-5.1,1.87-9.52,5.62-13.27,3.75-3.74,8.17-5.62,13.27-5.62h166.16c5.1,0,9.52,1.87,13.27,5.62,3.74,3.75,5.62,8.17,5.62,13.27v166.16c0,5.1-1.87,9.52-5.62,13.27-3.75,3.74-8.17,5.62-13.27,5.62h-166.16Zm0-18.88h166.16v-166.16h-166.16v166.16Zm14.35-25.87h137.65l-41.92-55.89-36.25,47.39-26.06-35.31-33.42,43.81Zm-14.35,25.87v0Z"/><text class="d" transform="translate(858.31 648.81)"><tspan x="0" y="0">Bez slike</tspan></text></g></svg>